# xmcd
#
# Track frame offsets:
#	150
#	12374
#	25825
#	44040
#	59971
#	77741
#	92473
#	111134
#	127790
#	150714
#
# Disc length: 2375 seconds
#
# Revision: 0
# Processed by: cddbd v1.5.1PL0 Copyright (c) Steve Scherf et al.
# Submitted via: dBpowerAMP V4.0
#
DISCID=7b09450a
DTITLE=John Steed - Grace Again
DYEAR=1900
DGENRE=Country
TTITLE0=Praise The Lord
TTITLE1=Grace Again
TTITLE2=There Is A Heaven
TTITLE3=Just The Way I Am
TTITLE4=Tear Down The Walls
TTITLE5=What In The World
TTITLE6=The Other Side Of The Mountain
TTITLE7=Gotta Be Tough
TTITLE8=Pale Horse Rider
TTITLE9=Old Memories
EXTD=
EXTT0=
EXTT1=
EXTT2=
EXTT3=
EXTT4=
EXTT5=
EXTT6=
EXTT7=
EXTT8=
EXTT9=
PLAYORDER=
